<svg width="58" height="18" viewBox="0 0 58 18" fill="none" xmlns="http://www.w3.org/2000/svg">
<path d="M1.53586 17.3041C1.03986 17.3041 0.655856 17.1681 0.383856 16.8961C0.127856 16.6081 -0.000144362 16.2161 -0.000144362 15.7201V1.75206C-0.000144362 1.24006 0.135856 0.85606 0.407856 0.60006C0.679856 0.32806 1.06386 0.19206 1.55986 0.19206H7.34386C9.19986 0.19206 10.6319 0.65606 11.6399 1.58406C12.6479 2.51206 13.1519 3.80806 13.1519 5.47206C13.1519 7.13606 12.6479 8.44006 11.6399 9.38406C10.6319 10.3121 9.19986 10.7761 7.34386 10.7761H3.07186V15.7201C3.07186 16.2161 2.94386 16.6081 2.68786 16.8961C2.43186 17.1681 2.04786 17.3041 1.53586 17.3041ZM3.07186 8.35206H6.86386C7.95186 8.35206 8.77586 8.11206 9.33586 7.63206C9.89586 7.13606 10.1759 6.41606 10.1759 5.47206C10.1759 4.52806 9.89586 3.81606 9.33586 3.33606C8.77586 2.85606 7.95186 2.61606 6.86386 2.61606H3.07186V8.35206ZM19.3761 17.3521C18.0481 17.3521 17.0481 16.9761 16.3761 16.2241C15.7041 15.4561 15.3681 14.3361 15.3681 12.8641V1.51206C15.3681 1.01606 15.4961 0.640059 15.7521 0.38406C16.0081 0.128059 16.3761 5.91278e-05 16.8561 5.91278e-05C17.3361 5.91278e-05 17.7041 0.128059 17.9601 0.38406C18.2321 0.640059 18.3681 1.01606 18.3681 1.51206V12.7201C18.3681 13.4561 18.5201 14.0001 18.8241 14.3521C19.1441 14.7041 19.5921 14.8801 20.1681 14.8801C20.2961 14.8801 20.4161 14.8801 20.5281 14.8801C20.6401 14.8641 20.7521 14.8481 20.8641 14.8321C21.0881 14.8001 21.2401 14.8641 21.3201 15.0241C21.4001 15.1681 21.4401 15.4721 21.4401 15.9361C21.4401 16.3361 21.3601 16.6481 21.2001 16.8721C21.0401 17.0961 20.7761 17.2321 20.4081 17.2801C20.2481 17.2961 20.0801 17.3121 19.9041 17.3281C19.7281 17.3441 19.5521 17.3521 19.3761 17.3521ZM26.8962 17.3521C26.0482 17.3521 25.2882 17.1921 24.6162 16.8721C23.9602 16.5361 23.4402 16.0881 23.0562 15.5281C22.6882 14.9681 22.5042 14.3361 22.5042 13.6321C22.5042 12.7681 22.7282 12.0881 23.1762 11.5921C23.6242 11.0801 24.3522 10.7121 25.3602 10.4881C26.3682 10.2641 27.7202 10.1521 29.4162 10.1521H30.6162V11.8801H29.4402C28.4482 11.8801 27.6562 11.9281 27.0642 12.0241C26.4722 12.1201 26.0482 12.2881 25.7922 12.5281C25.5522 12.7521 25.4322 13.0721 25.4322 13.4881C25.4322 14.0161 25.6162 14.4481 25.9842 14.7841C26.3522 15.1201 26.8642 15.2881 27.5202 15.2881C28.0482 15.2881 28.5122 15.1681 28.9122 14.9281C29.3282 14.6721 29.6562 14.3281 29.8962 13.8961C30.1362 13.4641 30.2562 12.9681 30.2562 12.4081V9.64806C30.2562 8.84806 30.0802 8.27206 29.7282 7.92006C29.3762 7.56806 28.7842 7.39206 27.9522 7.39206C27.4882 7.39206 26.9842 7.44806 26.4402 7.56006C25.9122 7.67206 25.3522 7.86406 24.7602 8.13606C24.4562 8.28006 24.1842 8.32006 23.9442 8.25606C23.7202 8.19206 23.5442 8.06406 23.4162 7.87206C23.2882 7.66406 23.2242 7.44006 23.2242 7.20006C23.2242 6.96006 23.2882 6.72806 23.4162 6.50406C23.5442 6.26406 23.7602 6.08806 24.0642 5.97606C24.8002 5.67206 25.5042 5.45606 26.1762 5.32806C26.8642 5.20006 27.4882 5.13606 28.0482 5.13606C29.2002 5.13606 30.1442 5.31206 30.8802 5.66406C31.6322 6.01606 32.1922 6.55206 32.5602 7.27206C32.9282 7.97606 33.1122 8.88806 33.1122 10.0081V15.7681C33.1122 16.2641 32.9922 16.6481 32.7522 16.9201C32.5122 17.1761 32.1682 17.3041 31.7202 17.3041C31.2722 17.3041 30.9202 17.1761 30.6642 16.9201C30.4242 16.6481 30.3042 16.2641 30.3042 15.7681V14.6161H30.4962C30.3842 15.1761 30.1602 15.6641 29.8242 16.0801C29.5042 16.4801 29.0962 16.7921 28.6002 17.0161C28.1042 17.2401 27.5362 17.3521 26.8962 17.3521ZM37.6452 17.3041C37.1652 17.3041 36.7972 17.1761 36.5412 16.9201C36.2852 16.6481 36.1572 16.2641 36.1572 15.7681V6.69606C36.1572 6.20006 36.2852 5.82406 36.5412 5.56806C36.7972 5.31206 37.1572 5.18406 37.6212 5.18406C38.0852 5.18406 38.4452 5.31206 38.7012 5.56806C38.9572 5.82406 39.0852 6.20006 39.0852 6.69606V8.32806L38.8212 7.72806C39.1732 6.88006 39.7172 6.24006 40.4532 5.80806C41.2052 5.36006 42.0532 5.13606 42.9972 5.13606C43.9412 5.13606 44.7172 5.31206 45.3252 5.66406C45.9332 6.01606 46.3892 6.55206 46.6932 7.27206C46.9972 7.97606 47.1492 8.87206 47.1492 9.96006V15.7681C47.1492 16.2641 47.0212 16.6481 46.7652 16.9201C46.5092 17.1761 46.1412 17.3041 45.6612 17.3041C45.1812 17.3041 44.8052 17.1761 44.5332 16.9201C44.2772 16.6481 44.1492 16.2641 44.1492 15.7681V10.1041C44.1492 9.19206 43.9732 8.52806 43.6212 8.11206C43.2852 7.69606 42.7572 7.48806 42.0372 7.48806C41.1572 7.48806 40.4532 7.76806 39.9252 8.32806C39.4132 8.87206 39.1572 9.60006 39.1572 10.5121V15.7681C39.1572 16.7921 38.6532 17.3041 37.6452 17.3041ZM55.5722 17.3521C54.5322 17.3521 53.6602 17.1761 52.9562 16.8241C52.2682 16.4721 51.7562 15.9601 51.4202 15.2881C51.0842 14.6001 50.9162 13.7521 50.9162 12.7441V7.63206H49.6682C49.2842 7.63206 48.9882 7.53606 48.7802 7.34406C48.5722 7.13606 48.4682 6.85606 48.4682 6.50406C48.4682 6.13606 48.5722 5.85606 48.7802 5.66406C48.9882 5.47206 49.2842 5.37606 49.6682 5.37606H50.9162V3.19206C50.9162 2.69606 51.0442 2.32006 51.3002 2.06406C51.5722 1.80806 51.9482 1.68006 52.4282 1.68006C52.9082 1.68006 53.2762 1.80806 53.5322 2.06406C53.7882 2.32006 53.9162 2.69606 53.9162 3.19206V5.37606H56.4602C56.8442 5.37606 57.1402 5.47206 57.3482 5.66406C57.5562 5.85606 57.6602 6.13606 57.6602 6.50406C57.6602 6.85606 57.5562 7.13606 57.3482 7.34406C57.1402 7.53606 56.8442 7.63206 56.4602 7.63206H53.9162V12.5761C53.9162 13.3441 54.0842 13.9201 54.4202 14.3041C54.7562 14.6881 55.3002 14.8801 56.0522 14.8801C56.3242 14.8801 56.5642 14.8561 56.7722 14.8081C56.9802 14.7601 57.1642 14.7281 57.3242 14.7121C57.5162 14.6961 57.6762 14.7601 57.8042 14.9041C57.9322 15.0321 57.9962 15.3041 57.9962 15.7201C57.9962 16.0401 57.9402 16.3281 57.8282 16.5841C57.7322 16.8241 57.5482 16.9921 57.2762 17.0881C57.0682 17.1521 56.7962 17.2081 56.4602 17.2561C56.1242 17.3201 55.8282 17.3521 55.5722 17.3521Z" fill="#1A1A1A"/>
</svg>
